# xmcd
#
# Track frame offsets:
# 150
# 18726
# 36619
# 67654
#
# Disc length: 1538 seconds
#
#
# Revision: 0
# Processed by: cddbd v1.5.2PL0 Copyright (c) Steve Scherf et al.
# Submitted via: FreeRIP 2.40 
#
DISCID=30060004
DTITLE=Kelly Rowland - Cany Nobody [CD Single)
DYEAR=2002
DGENRE=R&B
TTITLE0=Cant Nobody (Album Version)
TTITLE1=Cant Nobody (Cedsolo Hip Hop Remix)
TTITLE2=Stole (La Nu Soul Mix)
TTITLE3=Cant Nobody (Video)
EXTD=
EXTT0=
EXTT1=
EXTT2=
EXTT3=
PLAYORDER=
